<mxfile host="app.diagrams.net" modified="2024-05-14T07:18:28.947Z" agent="Mozilla/5.0 (Windows NT 10.0; Win64; x64) AppleWebKit/537.36 (KHTML, like Gecko) Chrome/124.0.0.0 Safari/537.36" etag="GuYEUjub0mWRpDvkRPX0" version="24.4.0" type="device">
  <diagram name="Page-1" id="Ex66a6s1wnM60ib3i16p">
    <mxGraphModel dx="1050" dy="583" grid="1" gridSize="10" guides="1" tooltips="1" connect="1" arrows="1" fold="1" page="1" pageScale="1" pageWidth="850" pageHeight="1100" math="0" shadow="0">
      <root>
        <mxCell id="0" />
        <mxCell id="1" parent="0" />
        <mxCell id="v5AF_uI-hM2AHu6lwFqZ-1" value="AWS Account" style="points=[[0,0],[0.25,0],[0.5,0],[0.75,0],[1,0],[1,0.25],[1,0.5],[1,0.75],[1,1],[0.75,1],[0.5,1],[0.25,1],[0,1],[0,0.75],[0,0.5],[0,0.25]];outlineConnect=0;gradientColor=none;html=1;whiteSpace=wrap;fontSize=12;fontStyle=0;container=1;pointerEvents=0;collapsible=0;recursiveResize=0;shape=mxgraph.aws4.group;grIcon=mxgraph.aws4.group_account;strokeColor=#CD2264;fillColor=none;verticalAlign=top;align=left;spacingLeft=30;fontColor=#CD2264;dashed=0;" vertex="1" parent="1">
          <mxGeometry x="120" y="90" width="980" height="470" as="geometry" />
        </mxCell>
        <mxCell id="v5AF_uI-hM2AHu6lwFqZ-2" value="Availability Zone" style="fillColor=none;strokeColor=#147EBA;dashed=1;verticalAlign=top;fontStyle=0;fontColor=#147EBA;whiteSpace=wrap;html=1;" vertex="1" parent="v5AF_uI-hM2AHu6lwFqZ-1">
          <mxGeometry x="80" y="40" width="560" height="160" as="geometry" />
        </mxCell>
        <mxCell id="v5AF_uI-hM2AHu6lwFqZ-6" value="Availability Zone" style="fillColor=none;strokeColor=#147EBA;dashed=1;verticalAlign=top;fontStyle=0;fontColor=#147EBA;whiteSpace=wrap;html=1;" vertex="1" parent="v5AF_uI-hM2AHu6lwFqZ-1">
          <mxGeometry x="80" y="240" width="560" height="160" as="geometry" />
        </mxCell>
        <mxCell id="v5AF_uI-hM2AHu6lwFqZ-7" value="&lt;b&gt;Public Subnet&lt;/b&gt;" style="points=[[0,0],[0.25,0],[0.5,0],[0.75,0],[1,0],[1,0.25],[1,0.5],[1,0.75],[1,1],[0.75,1],[0.5,1],[0.25,1],[0,1],[0,0.75],[0,0.5],[0,0.25]];outlineConnect=0;gradientColor=none;html=1;whiteSpace=wrap;fontSize=12;fontStyle=0;container=1;pointerEvents=0;collapsible=0;recursiveResize=0;shape=mxgraph.aws4.group;grIcon=mxgraph.aws4.group_security_group;grStroke=0;strokeColor=#00A4A6;fillColor=#E6F6F7;verticalAlign=top;align=left;spacingLeft=30;fontColor=#147EBA;dashed=0;" vertex="1" parent="v5AF_uI-hM2AHu6lwFqZ-1">
          <mxGeometry x="120" y="80" width="130" height="280" as="geometry" />
        </mxCell>
        <mxCell id="v5AF_uI-hM2AHu6lwFqZ-9" value="&lt;b&gt;Private Subnet&lt;/b&gt;" style="points=[[0,0],[0.25,0],[0.5,0],[0.75,0],[1,0],[1,0.25],[1,0.5],[1,0.75],[1,1],[0.75,1],[0.5,1],[0.25,1],[0,1],[0,0.75],[0,0.5],[0,0.25]];outlineConnect=0;gradientColor=none;html=1;whiteSpace=wrap;fontSize=12;fontStyle=0;container=1;pointerEvents=0;collapsible=0;recursiveResize=0;shape=mxgraph.aws4.group;grIcon=mxgraph.aws4.group_security_group;grStroke=0;strokeColor=#7AA116;fillColor=#F2F6E8;verticalAlign=top;align=left;spacingLeft=30;fontColor=#248814;dashed=0;" vertex="1" parent="v5AF_uI-hM2AHu6lwFqZ-1">
          <mxGeometry x="290" y="80" width="130" height="280" as="geometry" />
        </mxCell>
        <mxCell id="v5AF_uI-hM2AHu6lwFqZ-11" value="" style="outlineConnect=0;dashed=0;verticalLabelPosition=bottom;verticalAlign=top;align=center;html=1;shape=mxgraph.aws3.route_table;fillColor=#F58536;gradientColor=none;" vertex="1" parent="v5AF_uI-hM2AHu6lwFqZ-9">
          <mxGeometry x="-20" width="50" height="40" as="geometry" />
        </mxCell>
        <mxCell id="v5AF_uI-hM2AHu6lwFqZ-10" value="&lt;b&gt;Database Subnet&lt;/b&gt;" style="points=[[0,0],[0.25,0],[0.5,0],[0.75,0],[1,0],[1,0.25],[1,0.5],[1,0.75],[1,1],[0.75,1],[0.5,1],[0.25,1],[0,1],[0,0.75],[0,0.5],[0,0.25]];outlineConnect=0;html=1;whiteSpace=wrap;fontSize=12;fontStyle=0;container=1;pointerEvents=0;collapsible=0;recursiveResize=0;shape=mxgraph.aws4.group;grIcon=mxgraph.aws4.group_security_group;grStroke=0;strokeColor=#d6b656;fillColor=#fff2cc;verticalAlign=top;align=left;spacingLeft=30;dashed=0;" vertex="1" parent="v5AF_uI-hM2AHu6lwFqZ-1">
          <mxGeometry x="470" y="80" width="130" height="280" as="geometry" />
        </mxCell>
        <mxCell id="v5AF_uI-hM2AHu6lwFqZ-20" value="" style="outlineConnect=0;dashed=0;verticalLabelPosition=bottom;verticalAlign=top;align=center;html=1;shape=mxgraph.aws3.route_table;fillColor=#F58536;gradientColor=none;" vertex="1" parent="v5AF_uI-hM2AHu6lwFqZ-10">
          <mxGeometry x="-30" width="50" height="40" as="geometry" />
        </mxCell>
        <mxCell id="v5AF_uI-hM2AHu6lwFqZ-21" value="" style="outlineConnect=0;dashed=0;verticalLabelPosition=bottom;verticalAlign=top;align=center;html=1;shape=mxgraph.aws3.internet_gateway;fillColor=#F58536;gradientColor=none;" vertex="1" parent="v5AF_uI-hM2AHu6lwFqZ-1">
          <mxGeometry x="-40" y="184" width="69" height="72" as="geometry" />
        </mxCell>
        <mxCell id="v5AF_uI-hM2AHu6lwFqZ-23" value="" style="sketch=0;outlineConnect=0;fontColor=#232F3E;gradientColor=none;fillColor=#8C4FFF;strokeColor=none;dashed=0;verticalLabelPosition=bottom;verticalAlign=top;align=center;html=1;fontSize=12;fontStyle=0;aspect=fixed;pointerEvents=1;shape=mxgraph.aws4.nat_gateway;" vertex="1" parent="v5AF_uI-hM2AHu6lwFqZ-1">
          <mxGeometry x="170" y="140" width="50" height="50" as="geometry" />
        </mxCell>
        <mxCell id="v5AF_uI-hM2AHu6lwFqZ-25" value="VPC" style="points=[[0,0],[0.25,0],[0.5,0],[0.75,0],[1,0],[1,0.25],[1,0.5],[1,0.75],[1,1],[0.75,1],[0.5,1],[0.25,1],[0,1],[0,0.75],[0,0.5],[0,0.25]];outlineConnect=0;gradientColor=none;html=1;whiteSpace=wrap;fontSize=12;fontStyle=0;container=1;pointerEvents=0;collapsible=0;recursiveResize=0;shape=mxgraph.aws4.group;grIcon=mxgraph.aws4.group_vpc2;strokeColor=#8C4FFF;fillColor=none;verticalAlign=top;align=left;spacingLeft=30;fontColor=#AAB7B8;dashed=0;" vertex="1" parent="v5AF_uI-hM2AHu6lwFqZ-1">
          <mxGeometry x="50" y="30" width="620" height="390" as="geometry" />
        </mxCell>
        <mxCell id="v5AF_uI-hM2AHu6lwFqZ-26" value="VPC" style="sketch=0;outlineConnect=0;gradientColor=none;html=1;whiteSpace=wrap;fontSize=12;fontStyle=0;shape=mxgraph.aws4.group;grIcon=mxgraph.aws4.group_vpc;strokeColor=#879196;fillColor=none;verticalAlign=top;align=left;spacingLeft=30;fontColor=#879196;dashed=0;" vertex="1" parent="v5AF_uI-hM2AHu6lwFqZ-1">
          <mxGeometry x="730" y="30" width="230" height="390" as="geometry" />
        </mxCell>
        <mxCell id="v5AF_uI-hM2AHu6lwFqZ-12" value="" style="outlineConnect=0;dashed=0;verticalLabelPosition=bottom;verticalAlign=top;align=center;html=1;shape=mxgraph.aws3.route_table;fillColor=#F58536;gradientColor=none;" vertex="1" parent="1">
          <mxGeometry x="230" y="200" width="50" height="40" as="geometry" />
        </mxCell>
        <mxCell id="v5AF_uI-hM2AHu6lwFqZ-24" value="" style="edgeStyle=orthogonalEdgeStyle;rounded=0;orthogonalLoop=1;jettySize=auto;html=1;" edge="1" parent="1" source="v5AF_uI-hM2AHu6lwFqZ-23" target="v5AF_uI-hM2AHu6lwFqZ-12">
          <mxGeometry relative="1" as="geometry" />
        </mxCell>
      </root>
    </mxGraphModel>
  </diagram>
</mxfile>
